HIERARCHY
ROOT hips
{
	OFFSET -0.003675 0.299928 -0.021708
	CHANNELS 6 Xposition Yposition Zposition Xrotation Yrotation Zrotation
	JOINT LowerBack
	{
		OFFSET 0.000919 0.177588 0.009275
		CHANNELS 3 Xrotation Yrotation Zrotation
		JOINT spine
		{
			OFFSET 0.000919 0.177588 0.009275
			CHANNELS 3 Xrotation Yrotation Zrotation
			JOINT chest
			{
				OFFSET 0.000456 0.100015 0.004638
				CHANNELS 3 Xrotation Yrotation Zrotation
				JOINT neck
				{
					OFFSET 0.000456 0.100015 0.004638
					CHANNELS 3 Xrotation Yrotation Zrotation
					JOINT head
					{
						OFFSET 0.000924 0.155147 0.009274
						CHANNELS 6 Xposition Yposition Zposition Xrotation Yrotation Zrotation
						End Site
						{
							OFFSET 0.000000 0.153400 0.000000
						}
					}
				}
				JOINT shoulder.L
				{
					OFFSET 0.019937 0.078966 0.057518
					CHANNELS 6 Xposition Yposition Zposition Yrotation Xrotation Zrotation
					JOINT upper_arm.L
					{
						OFFSET 0.177024 -0.020465 -0.095062
						CHANNELS 6 Xposition Yposition Zposition Xrotation Yrotation Zrotation
						JOINT forearm.L
						{
							OFFSET 0.247100 -0.135500 -0.061800
							CHANNELS 3 Xrotation Yrotation Zrotation
							JOINT hand.L
							{
								OFFSET 0.217000 -0.143000 0.039300
								CHANNELS 3 Xrotation Yrotation Zrotation
								JOINT palm.01.L
								{
									OFFSET 0.021770 -0.038291 0.012954
									CHANNELS 6 Xposition Yposition Zposition Yrotation Xrotation Zrotation
									JOINT f_index.01.L
									{
										OFFSET 0.053215 -0.044137 0.008236
										CHANNELS 3 Xrotation Yrotation Zrotation
										JOINT f_index.02.L
										{
											OFFSET 0.036108 -0.024723 -0.010656
											CHANNELS 3 Xrotation Yrotation Zrotation
											JOINT f_index.03.L
											{
												OFFSET 0.021342 -0.014948 -0.010846
												CHANNELS 3 Xrotation Yrotation Zrotation
												End Site
												{
													OFFSET 0.015600 -0.009860 -0.013421
												}
											}
										}
									}
									JOINT thumb.01.L
									{
										OFFSET -0.009090 -0.002348 -0.024223
										CHANNELS 6 Xposition Yposition Zposition Xrotation Yrotation Zrotation
										JOINT thumb.02.L
										{
											OFFSET 0.019713 -0.035076 -0.011120
											CHANNELS 3 Xrotation Yrotation Zrotation
											JOINT thumb.03.L
											{
												OFFSET 0.024877 -0.021748 -0.005176
												CHANNELS 3 Xrotation Yrotation Zrotation
												End Site
												{
													OFFSET 0.016125 -0.013029 -0.001569
												}
											}
										}
									}
								}
								JOINT palm.02.L
								{
									OFFSET 0.032823 -0.025104 0.012281
									CHANNELS 6 Xposition Yposition Zposition Yrotation Xrotation Zrotation
									JOINT f_middle.01.L
									{
										OFFSET 0.055723 -0.038469 0.008037
										CHANNELS 3 Xrotation Yrotation Zrotation
										JOINT f_middle.02.L
										{
											OFFSET 0.038167 -0.027473 -0.015582
											CHANNELS 3 Xrotation Yrotation Zrotation
											JOINT f_middle.03.L
											{
												OFFSET 0.021707 -0.016587 -0.017037
												CHANNELS 3 Xrotation Yrotation Zrotation
												End Site
												{
													OFFSET 0.014112 -0.010584 -0.014294
												}
											}
										}
									}
								}
								JOINT palm.03.L
								{
									OFFSET 0.039230 -0.011402 0.008390
									CHANNELS 6 Xposition Yposition Zposition Yrotation Xrotation Zrotation
									JOINT f_ring.01.L
									{
										OFFSET 0.061796 -0.031470 0.007910
										CHANNELS 3 Xrotation Yrotation Zrotation
										JOINT f_ring.02.L
										{
											OFFSET 0.033092 -0.023401 -0.019127
											CHANNELS 3 Xrotation Yrotation Zrotation
											JOINT f_ring.03.L
											{
												OFFSET 0.021392 -0.015362 -0.017824
												CHANNELS 3 Xrotation Yrotation Zrotation
												End Site
												{
													OFFSET 0.008670 -0.007297 -0.014686
												}
											}
										}
									}
								}
								JOINT palm.04.L
								{
									OFFSET 0.043417 0.002450 0.002889
									CHANNELS 6 Xposition Yposition Zposition Yrotation Xrotation Zrotation
									JOINT f_pinky.01.L
									{
										OFFSET 0.069986 -0.026156 0.003627
										CHANNELS 3 Xrotation Yrotation Zrotation
										JOINT f_pinky.02.L
										{
											OFFSET 0.018520 -0.012813 -0.016429
											CHANNELS 3 Xrotation Yrotation Zrotation
											JOINT f_pinky.03.L
											{
												OFFSET 0.013822 -0.009796 -0.014947
												CHANNELS 3 Xrotation Yrotation Zrotation
												End Site
												{
													OFFSET 0.007238 -0.006103 -0.011657
												}
											}
										}
									}
								}
							}
						}
					}
				}
				JOINT shoulder.R
				{
					OFFSET -0.016662 0.078957 0.057696
					CHANNELS 6 Xposition Yposition Zposition Yrotation Xrotation Zrotation
					JOINT upper_arm.R
					{
						OFFSET -0.176972 -0.020537 -0.095144
						CHANNELS 6 Xposition Yposition Zposition Xrotation Yrotation Zrotation
						JOINT forearm.R
						{
							OFFSET -0.247100 -0.135500 -0.061800
							CHANNELS 3 Xrotation Yrotation Zrotation
							JOINT hand.R
							{
								OFFSET -0.217000 -0.143000 0.039300
								CHANNELS 3 Xrotation Yrotation Zrotation
								JOINT palm.01.R
								{
									OFFSET -0.021773 -0.038278 0.012988
									CHANNELS 6 Xposition Yposition Zposition Yrotation Xrotation Zrotation
									JOINT f_index.01.R
									{
										OFFSET -0.053212 -0.044139 0.008249
										CHANNELS 3 Xrotation Yrotation Zrotation
										JOINT f_index.02.R
										{
											OFFSET -0.036049 -0.024835 -0.010634
											CHANNELS 3 Xrotation Yrotation Zrotation
											JOINT f_index.03.R
											{
												OFFSET -0.021371 -0.014881 -0.010866
												CHANNELS 3 Xrotation Yrotation Zrotation
												End Site
												{
													OFFSET -0.015584 -0.009883 -0.013422
												}
											}
										}
									}
									JOINT thumb.01.R
									{
										OFFSET 0.009113 -0.002381 -0.024211
										CHANNELS 6 Xposition Yposition Zposition Xrotation Yrotation Zrotation
										JOINT thumb.02.R
										{
											OFFSET -0.019694 -0.035097 -0.011088
											CHANNELS 3 Xrotation Yrotation Zrotation
											JOINT thumb.03.R
											{
												OFFSET -0.024867 -0.021762 -0.005168
												CHANNELS 3 Xrotation Yrotation Zrotation
												End Site
												{
													OFFSET -0.016120 -0.013036 -0.001565
												}
											}
										}
									}
								}
								JOINT palm.02.R
								{
									OFFSET -0.032828 -0.025095 0.012286
									CHANNELS 6 Xposition Yposition Zposition Yrotation Xrotation Zrotation
									JOINT f_middle.01.R
									{
										OFFSET -0.055721 -0.038472 0.008040
										CHANNELS 3 Xrotation Yrotation Zrotation
										JOINT f_middle.02.R
										{
											OFFSET -0.038101 -0.027593 -0.015557
											CHANNELS 3 Xrotation Yrotation Zrotation
											JOINT f_middle.03.R
											{
												OFFSET -0.021730 -0.016530 -0.017054
												CHANNELS 3 Xrotation Yrotation Zrotation
												End Site
												{
													OFFSET -0.014096 -0.010608 -0.014293
												}
											}
										}
									}
								}
								JOINT palm.03.R
								{
									OFFSET -0.039192 -0.011488 0.008390
									CHANNELS 6 Xposition Yposition Zposition Yrotation Xrotation Zrotation
									JOINT f_ring.01.R
									{
										OFFSET -0.061839 -0.031387 0.007876
										CHANNELS 3 Xrotation Yrotation Zrotation
										JOINT f_ring.02.R
										{
											OFFSET -0.033068 -0.023437 -0.019125
											CHANNELS 3 Xrotation Yrotation Zrotation
											JOINT f_ring.03.R
											{
												OFFSET -0.021371 -0.015393 -0.017822
												CHANNELS 3 Xrotation Yrotation Zrotation
												End Site
												{
													OFFSET -0.008654 -0.007321 -0.014684
												}
											}
										}
									}
								}
								JOINT palm.04.R
								{
									OFFSET -0.043421 0.002443 0.002845
									CHANNELS 6 Xposition Yposition Zposition Yrotation Xrotation Zrotation
									JOINT f_pinky.01.R
									{
										OFFSET -0.069983 -0.026169 0.003599
										CHANNELS 3 Xrotation Yrotation Zrotation
										JOINT f_pinky.02.R
										{
											OFFSET -0.018501 -0.012842 -0.016428
											CHANNELS 3 Xrotation Yrotation Zrotation
											JOINT f_pinky.03.R
											{
												OFFSET -0.013806 -0.009821 -0.014946
												CHANNELS 3 Xrotation Yrotation Zrotation
												End Site
												{
													OFFSET -0.007226 -0.006121 -0.011655
												}
											}
										}
									}
								}
							}
						}
					}
				}
			}
		}
	}
	JOINT pelvis.L
	{
		OFFSET 0.000000 0.000000 0.000000
		CHANNELS 6 Xposition Yposition Zposition Xrotation Yrotation Zrotation
		JOINT thigh.L
		{
			OFFSET 0.101675 0.001054 -0.000000
			CHANNELS 3 Xrotation Yrotation Zrotation
			JOINT shin.L
			{
				OFFSET 0.000000 -0.534800 0.041000
				CHANNELS 3 Xrotation Yrotation Zrotation
				JOINT foot.L
				{
					OFFSET 0.000000 -0.452000 -0.044800
					CHANNELS 3 Xrotation Yrotation Zrotation
					JOINT toe.L
					{
						OFFSET -0.000000 -0.068500 0.109600
						CHANNELS 3 Xrotation Yrotation Zrotation
						End Site
						{
							OFFSET -0.000000 0.000000 0.067200
						}
					}
				}
				JOINT heel.L
				{
					OFFSET 0.000000 -0.452000 -0.044800
					CHANNELS 3 Xrotation Yrotation Zrotation
					JOINT heel.02.L
					{
						OFFSET -0.038000 -0.085200 0.016200
						CHANNELS 6 Xposition Yposition Zposition Xrotation Yrotation Zrotation
						End Site
						{
							OFFSET 0.080000 -0.000000 0.000000
						}
					}
				}
			}
		}
	}
	JOINT pelvis.R
	{
		OFFSET 0.000000 0.000000 0.000000
		CHANNELS 6 Xposition Yposition Zposition Xrotation Yrotation Zrotation
		JOINT thigh.R
		{
			OFFSET -0.094325 0.001054 0.000000
			CHANNELS 3 Xrotation Yrotation Zrotation
			JOINT shin.R
			{
				OFFSET 0.000000 -0.534800 0.041000
				CHANNELS 3 Xrotation Yrotation Zrotation
				JOINT foot.R
				{
					OFFSET 0.000000 -0.452000 -0.044800
					CHANNELS 3 Xrotation Yrotation Zrotation
					JOINT toe.R
					{
						OFFSET -0.000000 -0.068500 0.109600
						CHANNELS 3 Xrotation Yrotation Zrotation
						End Site
						{
							OFFSET -0.000000 0.000000 0.067200
						}
					}
				}
				JOINT heel.R
				{
					OFFSET 0.000000 -0.452000 -0.044800
					CHANNELS 3 Xrotation Yrotation Zrotation
					JOINT heel.02.R
					{
						OFFSET 0.038000 -0.085200 0.016200
						CHANNELS 6 Xposition Yposition Zposition Xrotation Yrotation Zrotation
						End Site
						{
							OFFSET -0.080000 0.000000 -0.000000
						}
					}
				}
			}
		}
	}
}
MOTION
Frames: 4
Frame Time: 0.041667
-0.010023 0.212690 0.002760 35.562766 7.941919 88.759463 -0.000000 0.000002 -0.000000 -0.000000 0.000003 -0.000001 -0.000000 -0.000001 -0.000000 -0.000001 0.000001 0.000000 0.000924 0.155147 0.009274 -21.095480 0.079954 5.346605 0.019937 0.078966 0.057518 -2.349358 3.515954 38.241348 0.177024 -0.020465 -0.095062 -31.428487 19.942474 -74.160288 -64.646272 28.300086 -77.735469 -0.000001 0.000001 -0.000002 0.021770 -0.038291 0.012954 0.000002 -0.000000 0.000001 -0.000001 -0.000005 0.000001 -0.000001 -0.000004 0.000004 -0.000003 0.000001 0.000002 -0.009090 -0.002348 -0.024224 -0.000000 -0.000001 -0.000003 -0.000000 -0.000003 0.000001 0.000001 0.000001 -0.000001 0.032823 -0.025104 0.012281 -0.000003 -0.000001 0.000002 -0.000004 0.000004 -0.000003 -0.000006 0.000000 0.000007 0.000000 -0.000006 0.000004 0.039230 -0.011402 0.008390 0.000001 -0.000000 0.000004 0.000003 0.000003 -0.000004 0.000001 0.000004 0.000001 -0.000001 -0.000003 0.000002 0.043417 0.002450 0.002889 0.000000 -0.000000 -0.000005 -0.000000 -0.000006 -0.000002 -0.000000 -0.000003 0.000001 -0.000002 0.000001 -0.000002 -0.016662 0.078956 0.057696 3.619087 1.462120 -30.944418 -0.176972 -0.020537 -0.095144 -17.591796 -12.859895 52.173267 -68.083353 6.210536 53.654612 0.000000 -0.000001 -0.000001 -0.021773 -0.038278 0.012988 0.000002 0.000000 0.000002 -0.000001 0.000004 -0.000003 -0.000003 -0.000002 -0.000001 0.000001 0.000002 0.000007 0.009114 -0.002381 -0.024212 0.000001 0.000000 -0.000003 -0.000001 -0.000001 -0.000005 -0.000001 -0.000003 -0.000003 -0.032828 -0.025095 0.012286 -0.000001 0.000000 0.000001 0.000002 0.000001 0.000002 0.000001 -0.000004 -0.000003 -0.000003 0.000001 -0.000002 -0.039192 -0.011488 0.008390 0.000002 0.000002 0.000003 0.000005 0.000004 -0.000002 -0.000001 0.000001 -0.000000 0.000004 -0.000001 -0.000000 -0.043421 0.002443 0.002845 0.000000 0.000001 0.000002 -0.000006 0.000003 0.000001 0.000002 -0.000007 -0.000004 -0.000001 0.000002 0.000003 0.000000 0.000000 -0.000000 -1.974942 1.873329 -21.554190 18.570186 -0.804478 -11.392424 23.582580 0.163467 -1.647457 0.000000 0.000001 0.000001 0.000001 0.000000 -0.000000 0.000005 -0.000002 0.000001 -0.038000 -0.085200 0.016200 -0.000000 -0.000002 -0.000003 0.000000 0.000000 -0.000000 -1.864675 1.831107 -20.323569 0.614323 -0.872852 -11.779495 25.420571 1.294642 -13.179600 0.000000 0.000002 -0.000000 0.000003 0.000002 0.000001 0.000005 -0.000000 -0.000000 0.038000 -0.085200 0.016200 -0.000003 0.000001 -0.000002 
-0.009311 0.212438 0.003295 33.288525 7.666986 89.589064 -0.000001 -0.000001 0.000000 0.000000 -0.000001 -0.000000 0.000000 -0.000003 -0.000000 0.000001 -0.000001 0.000001 0.000924 0.155148 0.009274 -21.721847 0.083109 3.787754 0.019937 0.078966 0.057518 -5.342049 4.031902 40.813491 0.177025 -0.020465 -0.095062 -35.224932 21.829898 -74.581370 -56.892515 35.220629 -88.945701 -0.000001 0.000004 -0.000001 0.021770 -0.038291 0.012954 0.000000 -0.000001 -0.000000 -0.000002 -0.000003 -0.000001 0.000002 0.000001 0.000005 0.000001 0.000005 0.000000 -0.009090 -0.002348 -0.024223 -0.000001 -0.000002 -0.000003 -0.000000 -0.000003 0.000001 -0.000001 0.000001 0.000001 0.032823 -0.025104 0.012281 -0.000000 -0.000003 0.000005 0.000001 0.000001 -0.000003 -0.000001 -0.000005 0.000001 0.000004 0.000003 -0.000001 0.039230 -0.011402 0.008390 0.000001 -0.000002 0.000004 0.000005 -0.000001 -0.000002 0.000001 0.000004 0.000001 0.000001 -0.000005 0.000003 0.043417 0.002450 0.002889 -0.000000 -0.000002 -0.000003 -0.000002 -0.000006 -0.000002 -0.000002 0.000003 0.000001 -0.000002 -0.000003 0.000001 -0.016662 0.078957 0.057696 0.253669 1.824288 -30.480631 -0.176972 -0.020537 -0.095144 -18.142647 -12.196781 50.020409 -72.668623 -17.482371 65.986096 -0.000002 -0.000002 0.000001 -0.021773 -0.038278 0.012988 0.000001 -0.000002 -0.000003 -0.000003 0.000001 -0.000001 -0.000001 -0.000003 -0.000008 -0.000003 0.000005 -0.000001 0.009113 -0.002381 -0.024211 0.000001 0.000000 -0.000004 0.000004 0.000003 -0.000001 0.000005 0.000001 0.000001 -0.032828 -0.025095 0.012286 0.000002 0.000000 -0.000004 0.000001 0.000001 0.000006 0.000003 0.000004 -0.000001 0.000001 0.000003 -0.000002 -0.039192 -0.011488 0.008390 0.000002 -0.000000 0.000001 -0.000003 0.000003 -0.000005 -0.000000 0.000001 -0.000000 -0.000002 -0.000003 0.000002 -0.043421 0.002443 0.002844 0.000000 -0.000002 -0.000003 -0.000005 0.000007 -0.000003 0.000003 -0.000003 0.000000 0.000001 0.000002 -0.000004 0.000000 0.000000 -0.000000 -1.954005 1.912493 -22.028762 20.256285 -0.747454 -10.727336 23.541304 -0.071710 0.725451 0.000000 0.000000 0.000000 -0.000000 -0.000002 -0.000000 0.000002 -0.000003 -0.000000 -0.038000 -0.085200 0.016200 0.000001 -0.000001 0.000001 0.000000 0.000000 -0.000000 -1.842968 1.868919 -20.798244 6.783395 -0.915675 -11.883488 19.414207 1.044612 -10.600419 0.000000 -0.000001 -0.000001 0.000002 0.000004 0.000001 0.000007 -0.000002 0.000001 0.038000 -0.085200 0.016200 0.000000 0.000004 0.000001 
-0.008604 0.209320 0.003374 32.095704 5.586722 92.014765 -0.000001 -0.000004 0.000000 -0.000001 0.000001 0.000000 0.000000 0.000001 -0.000000 0.000001 -0.000001 0.000000 0.000924 0.155148 0.009274 -21.656962 0.079033 -9.596895 0.019937 0.078966 0.057518 -14.019605 5.507052 47.377877 0.177025 -0.020465 -0.095062 -64.506683 29.652375 -62.550770 -63.313654 9.141233 -65.076574 -0.000001 0.000002 0.000001 0.021770 -0.038291 0.012954 0.000001 0.000002 0.000001 0.000001 0.000001 0.000003 -0.000001 -0.000002 0.000006 -0.000003 -0.000001 0.000001 -0.009090 -0.002348 -0.024224 0.000001 0.000000 0.000001 0.000001 -0.000004 0.000001 -0.000001 0.000002 0.000003 0.032823 -0.025104 0.012281 0.000002 0.000001 0.000004 -0.000004 0.000001 -0.000003 -0.000004 -0.000003 0.000003 -0.000001 0.000003 0.000003 0.039230 -0.011402 0.008390 -0.000003 0.000001 0.000009 0.000003 -0.000003 0.000003 -0.000002 0.000002 0.000003 0.000002 -0.000002 0.000003 0.043417 0.002450 0.002889 0.000003 -0.000000 -0.000003 -0.000001 -0.000002 -0.000004 0.000004 0.000000 0.000001 -0.000000 0.000000 0.000001 -0.016662 0.078957 0.057696 -4.339528 3.707333 -34.424836 -0.176972 -0.020537 -0.095144 -37.337304 -2.668367 39.511053 -149.579777 123.898443 104.435730 -0.000001 0.000002 -0.000000 -0.021773 -0.038278 0.012988 -0.000002 -0.000003 -0.000002 -0.000001 0.000003 -0.000004 -0.000004 -0.000002 -0.000006 -0.000000 -0.000002 0.000003 0.009113 -0.002381 -0.024211 0.000002 -0.000003 -0.000003 -0.000000 -0.000001 -0.000001 0.000001 -0.000001 -0.000003 -0.032828 -0.025095 0.012286 -0.000003 0.000003 0.000001 -0.000001 -0.000003 0.000000 -0.000004 0.000002 -0.000004 -0.000004 0.000006 -0.000007 -0.039192 -0.011488 0.008390 -0.000002 0.000000 0.000001 0.000000 0.000003 -0.000003 0.000006 -0.000001 0.000002 -0.000003 -0.000003 -0.000000 -0.043421 0.002443 0.002845 -0.000002 -0.000003 -0.000002 -0.000007 0.000006 -0.000004 0.000000 -0.000005 0.000000 -0.000002 -0.000001 -0.000000 0.000000 0.000000 -0.000000 -1.932254 1.542049 -18.301936 26.944570 -0.710230 -10.612339 23.233245 -0.272827 2.755639 -0.000002 0.000001 0.000003 -0.000005 -0.000001 0.000005 0.000002 0.000001 0.000003 -0.038000 -0.085200 0.016200 -0.000001 -0.000003 0.000002 0.000000 0.000000 -0.000000 -1.836057 1.511342 -17.070321 10.383408 -0.390073 -4.690136 15.954832 1.235591 -12.568339 0.000000 -0.000004 -0.000004 0.000003 -0.000003 0.000000 0.000005 -0.000002 -0.000002 0.038000 -0.085200 0.016200 -0.000003 0.000000 0.000000 
-0.012603 0.208974 0.001326 55.789634 9.652323 82.519859 0.000000 0.000001 0.000000 -0.000001 0.000003 0.000001 0.000001 -0.000001 0.000000 -0.000001 0.000001 0.000002 0.000924 0.155148 0.009274 -22.099302 0.084344 7.491304 0.019937 0.078966 0.057518 4.624126 3.055819 34.965664 0.177025 -0.020465 -0.095062 -34.122006 17.434307 -66.904592 -11.480319 -11.341369 -16.024722 -0.000002 0.000003 0.000001 0.021770 -0.038291 0.012954 0.000002 0.000004 0.000001 -0.000001 -0.000001 -0.000000 0.000004 -0.000000 0.000005 -0.000004 -0.000002 -0.000001 -0.009090 -0.002348 -0.024224 -0.000001 -0.000005 -0.000002 -0.000000 0.000001 0.000001 -0.000000 -0.000005 0.000003 0.032823 -0.025104 0.012281 -0.000001 -0.000000 0.000005 -0.000003 -0.000003 -0.000007 -0.000004 0.000002 0.000003 0.000003 0.000001 0.000001 0.039230 -0.011402 0.008390 -0.000001 0.000001 0.000001 -0.000002 0.000000 -0.000002 -0.000002 0.000006 0.000003 0.000000 -0.000003 0.000006 0.043417 0.002450 0.002889 0.000000 0.000001 0.000002 -0.000004 -0.000003 -0.000000 -0.000000 0.000001 -0.000001 -0.000000 0.000000 -0.000003 -0.016662 0.078957 0.057696 19.377709 1.065824 -33.641574 -0.176972 -0.020537 -0.095144 -26.628070 -18.122411 66.931879 -183.438910 175.390802 197.838560 0.000003 0.000004 0.000003 -0.021773 -0.038278 0.012988 0.000000 -0.000005 -0.000005 -0.000003 0.000002 -0.000003 0.000001 0.000006 -0.000004 0.000003 0.000000 0.000003 0.009114 -0.002381 -0.024211 -0.000003 -0.000003 -0.000003 -0.000002 -0.000002 -0.000001 0.000002 0.000004 -0.000003 -0.032828 -0.025095 0.012286 -0.000001 -0.000004 -0.000005 0.000000 -0.000000 0.000001 0.000002 0.000000 0.000001 0.000001 0.000003 -0.000006 -0.039192 -0.011488 0.008390 -0.000002 -0.000004 -0.000004 -0.000001 -0.000000 0.000000 0.000003 0.000003 -0.000000 -0.000003 0.000003 -0.000001 -0.043421 0.002443 0.002844 0.000000 -0.000005 -0.000002 -0.000001 -0.000003 0.000003 0.000001 -0.000003 0.000003 -0.000002 0.000003 0.000002 0.000000 0.000000 -0.000000 -2.066823 1.634924 -18.808557 4.715220 -0.825191 -10.815093 35.280140 0.166122 -1.674275 -0.000002 -0.000000 -0.000002 -0.000000 0.000000 0.000001 0.000002 0.000002 -0.000001 -0.038000 -0.085200 0.016200 0.000004 0.000005 -0.000002 0.000000 0.000000 0.000000 -1.962595 1.600626 -17.577321 -3.472765 -0.381404 -5.616143 10.356028 1.344520 -13.697447 -0.000002 0.000003 -0.000004 0.000003 0.000002 -0.000002 0.000002 0.000001 -0.000002 0.038000 -0.085200 0.016200 -0.000000 0.000002 -0.000001 
